{
	"asset":{
		"generator":"Khronos glTF Blender I/O v4.0.44",
		"version":"2.0"
	},
	"extensionsUsed":[
		"KHR_materials_unlit",
		"EXT_texture_webp"
	],
	"extensionsRequired":[
		"EXT_texture_webp"
	],
	"scene":0,
	"scenes":[
		{
			"name":"Scene",
			"nodes":[
				0
			]
		}
	],
	"nodes":[
		{
			"mesh":0,
			"name":"Object_374"
		}
	],
	"materials":[
		{
			"doubleSided":true,
			"extensions":{
				"KHR_materials_unlit":{}
			},
			"name":"ai_weapon",
			"pbrMetallicRoughness":{
				"baseColorTexture":{
					"index":0
				},
				"metallicFactor":0,
				"roughnessFactor":0.9
			}
		},
		{
			"doubleSided":true,
			"extensions":{
				"KHR_materials_unlit":{}
			},
			"name":"ai_face",
			"pbrMetallicRoughness":{
				"baseColorTexture":{
					"index":1
				},
				"metallicFactor":0,
				"roughnessFactor":0.9
			}
		},
		{
			"doubleSided":true,
			"extensions":{
				"KHR_materials_unlit":{}
			},
			"name":"ai_body",
			"pbrMetallicRoughness":{
				"baseColorTexture":{
					"index":2
				},
				"metallicFactor":0,
				"roughnessFactor":0.9
			}
		}
	],
	"meshes":[
		{
			"name":"polySurface1327_ai_weapon_0",
			"primitives":[
				{
					"attributes":{
						"POSITION":0,
						"NORMAL":1,
						"TEXCOORD_0":2
					},
					"indices":3,
					"material":0
				},
				{
					"attributes":{
						"POSITION":4,
						"NORMAL":5,
						"TEXCOORD_0":6
					},
					"indices":7,
					"material":1
				},
				{
					"attributes":{
						"POSITION":8,
						"NORMAL":9,
						"TEXCOORD_0":10
					},
					"indices":11,
					"material":2
				}
			]
		}
	],
	"textures":[
		{
			"extensions":{
				"EXT_texture_webp":{
					"source":0
				}
			},
			"sampler":0
		},
		{
			"extensions":{
				"EXT_texture_webp":{
					"source":1
				}
			},
			"sampler":0
		},
		{
			"extensions":{
				"EXT_texture_webp":{
					"source":2
				}
			},
			"sampler":0
		}
	],
	"images":[
		{
			"mimeType":"image/webp",
			"name":"ai_weapon_baseColor",
			"uri":"ai_weapon_baseColor.webp"
		},
		{
			"mimeType":"image/webp",
			"name":"ai_face_baseColor",
			"uri":"ai_face_baseColor.webp"
		},
		{
			"mimeType":"image/webp",
			"name":"ai_body_baseColor",
			"uri":"ai_body_baseColor.webp"
		}
	],
	"accessors":[
		{
			"bufferView":0,
			"componentType":5126,
			"count":13186,
			"max":[
				21.063627243041992,
				40.06669235229492,
				5.77559232711792
			],
			"min":[
				-20.911787033081055,
				10.452488899230957,
				-9.515817642211914
			],
			"type":"VEC3"
		},
		{
			"bufferView":1,
			"componentType":5126,
			"count":13186,
			"type":"VEC3"
		},
		{
			"bufferView":2,
			"componentType":5126,
			"count":13186,
			"type":"VEC2"
		},
		{
			"bufferView":3,
			"componentType":5123,
			"count":43344,
			"type":"SCALAR"
		},
		{
			"bufferView":4,
			"componentType":5126,
			"count":5056,
			"max":[
				4.665787696838379,
				40.500606536865234,
				2.697244167327881
			],
			"min":[
				-4.418693542480469,
				30.340538024902344,
				-3.2819321155548096
			],
			"type":"VEC3"
		},
		{
			"bufferView":5,
			"componentType":5126,
			"count":5056,
			"type":"VEC3"
		},
		{
			"bufferView":6,
			"componentType":5126,
			"count":5056,
			"type":"VEC2"
		},
		{
			"bufferView":7,
			"componentType":5123,
			"count":22260,
			"type":"SCALAR"
		},
		{
			"bufferView":8,
			"componentType":5126,
			"count":10632,
			"max":[
				16.885000228881836,
				33.362430572509766,
				4.448170185089111
			],
			"min":[
				-16.408185958862305,
				-0.15395155549049377,
				-3.6846773624420166
			],
			"type":"VEC3"
		},
		{
			"bufferView":9,
			"componentType":5126,
			"count":10632,
			"type":"VEC3"
		},
		{
			"bufferView":10,
			"componentType":5126,
			"count":10632,
			"type":"VEC2"
		},
		{
			"bufferView":11,
			"componentType":5123,
			"count":45723,
			"type":"SCALAR"
		}
	],
	"bufferViews":[
		{
			"buffer":0,
			"byteLength":158232,
			"byteOffset":0,
			"target":34962
		},
		{
			"buffer":0,
			"byteLength":158232,
			"byteOffset":158232,
			"target":34962
		},
		{
			"buffer":0,
			"byteLength":105488,
			"byteOffset":316464,
			"target":34962
		},
		{
			"buffer":0,
			"byteLength":86688,
			"byteOffset":421952,
			"target":34963
		},
		{
			"buffer":0,
			"byteLength":60672,
			"byteOffset":508640,
			"target":34962
		},
		{
			"buffer":0,
			"byteLength":60672,
			"byteOffset":569312,
			"target":34962
		},
		{
			"buffer":0,
			"byteLength":40448,
			"byteOffset":629984,
			"target":34962
		},
		{
			"buffer":0,
			"byteLength":44520,
			"byteOffset":670432,
			"target":34963
		},
		{
			"buffer":0,
			"byteLength":127584,
			"byteOffset":714952,
			"target":34962
		},
		{
			"buffer":0,
			"byteLength":127584,
			"byteOffset":842536,
			"target":34962
		},
		{
			"buffer":0,
			"byteLength":85056,
			"byteOffset":970120,
			"target":34962
		},
		{
			"buffer":0,
			"byteLength":91446,
			"byteOffset":1055176,
			"target":34963
		}
	],
	"samplers":[
		{
			"magFilter":9729,
			"minFilter":9987
		}
	],
	"buffers":[
		{
			"byteLength":1146624,
			"uri":"kizuna_ai.bin"
		}
	]
}
